{"title":"Wall Street Money Never Sleeps 2010.R5.LINE.H264.Feel-Free","uid":5904765,"size":1165496433,"categoryP":"video","categoryS":"movies","magnet":"?xt=urn:btih:75a3148cd9594a05a064014696a1fef7d4b69bda&amp;dn=Wall+Street+Money+Never+Sleeps+2010.R5.LINE.H264.Feel-Free&amp;tr=udp%3A%2F%2Ftracker.openbittorrent.com%3A80&amp;tr=udp%3A%2F%2Fopen.demonii.com%3A1337&amp;tr=udp%3A%2F%2Ftracker.coppersurfer.tk%3A6969&amp;tr=udp%3A%2F%2Fexodus.desync.com%3A6969","seeders":0,"leechers":0,"uploader":"neon","files":-1,"time":1287820718,"description":"As the global economy teeters on the brink of disaster, a young Wall Street trader partners with disgraced former Wall Street corporate raider Gordon Gekko on a two-tiered mission: To alert the financial community to the coming doom, and to find out who was responsible for the death of the young trader\\'s mentor\n\nGenre:Drama\nLanguage:English\n &lt;a href=&quot; http://www.imdb.com/title/tt1027718/&quot; rel=&quot;nofollow&quot; target=&quot;_NEW&quot;&gt; http://www.imdb.com/title/tt1027718/&lt;/a&gt;\nSource:DVD5/AUDIO.LAP.THX\n\nGeneral\nComplete name :Wall.Street.Money.Never.Sleeps.2010.R5.LINE.H264.Feel-Free\nFormat : MPEG-4\nFormat profile : Base Media / Version 2\nCodec ID : mp42\nFile size : 1.09 GiB\nDuration : 2h 4mn\nOverall bit rate : 1 248 Kbps\nVideo #1\nCodec ID : avc1\nCodec ID/Info : Advanced Video Coding\nDuration : 2h 4mn\nBit rate mode : Variable\nBit rate : 772 Kbps\nWidth : 720 pixels\nHeight : 304 pixels\nDisplay aspect ratio : 2.35:1\nFrame rate mode : Constant\nFrame rate : 23.976 fps\nResolution : 24 bits\nColorimetry : 4:2:0\nScan type : Progressive\nBits/(Pixel*Frame) : 0.147\nStream size : 688 MiB (62%)\nAudio #2\nID : 2\nFormat : AAC\nFormat/Info : Advanced Audio Codec\nFormat version : Version 4\nFormat profile : LC\nFormat settings, SBR : No\nCodec ID : 40\nDuration : 2h 4mn\nBit rate mode : Constant\nBit rate : 471 Kbps\nNominal bit rate : 480 Kbps\nChannel(s) : 6 channels\nChannel positions : Front: L C R, Rear: L R, LFE\nSampling rate : 48.0 KHz\nResolution : 16 bits\nStream size : 420 MiB (38%)","torrent":{"xt":"urn:btih:75a3148cd9594a05a064014696a1fef7d4b69bda","amp;dn":"Wall+Street+Money+Never+Sleeps+2010.R5.LINE.H264.Feel-Free","amp;tr":["udp%3A%2F%2Ftracker.openbittorrent.com%3A80","udp%3A%2F%2Fopen.demonii.com%3A1337","udp%3A%2F%2Ftracker.coppersurfer.tk%3A6969","udp%3A%2F%2Fexodus.desync.com%3A6969"],"infoHash":"75a3148cd9594a05a064014696a1fef7d4b69bda","infoHashBuffer":{"type":"Buffer","data":[117,163,20,140,217,89,74,5,160,100,1,70,150,161,254,247,212,182,155,218]},"announce":[],"urlList":[]}}